<svg xmlns="http://www.w3.org/2000/svg" viewBox="0 0 336.31 336.31"><defs><style>.cls-1{fill:#ffe07b;}.cls-2{fill:#fcab00;}.cls-3,.cls-7{fill:#bf2b00;}.cls-4{fill:#6b8500;}.cls-5{fill:#8f8500;}.cls-6{fill:#87a836;}.cls-7{font-size:35.77px;font-family:KaushanScript-Regular, Kaushan Script;letter-spacing:-0.01em;}.cls-8{letter-spacing:0.02em;}</style></defs><g id="Capa_2" data-name="Capa 2"><g id="logo"><circle cx="168.15" cy="168.15" r="168.15"/><path class="cls-1" d="M51.3,96.87a274.86,274.86,0,0,1,238.39,0L170.5,321.51Z"/><path class="cls-2" d="M298.38,78.86c-13.12-6.33-28.21-8-42.19-12.25S228.86,55.18,214.42,53s-29.33.68-43.92.68S141,50.81,126.57,53,98.74,62.32,84.8,66.61,55.73,72.53,42.61,78.86c0,14.27,8.69,18.91,8.69,18.91,7.56-3.65,16.1-5.56,24.37-7.4,5-1.11,10.1-2.26,15-3.78s9.83-3.46,14.57-5.34c7.86-3.13,16-6.35,24.29-7.6s17-.56,25.42.1c5.08.4,10.34.82,15.52.82s10.44-.42,15.52-.82c8.43-.66,17.15-1.35,25.42-.1s16.42,4.47,24.28,7.6c4.74,1.88,9.64,3.82,14.57,5.34s10.07,2.67,15,3.78c8.26,1.84,16.81,3.75,24.36,7.39C289.69,97.76,297.33,92.4,298.38,78.86Z"/><path class="cls-3" d="M104.71,185.83a12.13,12.13,0,0,1-5.86-1.47,41.73,41.73,0,0,0,5.79,16.57,115.2,115.2,0,0,0-11.88-.73c-8.43,0-11.37,1.39-11.37,1.39,2.35-7.33,3.45-17.67,3.45-27.42,0-10.64-1.32-20.68-3.81-25.67a24.52,24.52,0,0,0,7.4,1c4.7,0,9.61-1,13.35-1,6,0,17,4.4,17.09,20.9C118.87,179.52,112,185.83,104.71,185.83Zm.44-21.27a3.25,3.25,0,0,0-2.93-3.52c-4,0-3.81,9.09-3.81,11.73,0,.81,0,1.62.07,2.5C100.9,173,105.15,168.3,105.15,164.56Z"/><path class="cls-3" d="M135.3,200.2a96.19,96.19,0,0,0-15,1.25c3.23-6.46,3.38-24.64,3.38-27.36,0-.66-.15-20.82-2.57-25.66a66.25,66.25,0,0,0,12.1,1.1,45,45,0,0,0,6.89-.44,115.45,115.45,0,0,0-1.83,21.78c0,9.9,1,20.75,3.37,29.62A56.75,56.75,0,0,0,135.3,200.2Z"/><path class="cls-3" d="M163.82,189.79c6-1.25,11.89-3,16.94-7.56a64.51,64.51,0,0,0-.43,7.41,53.43,53.43,0,0,0,1.24,11.81,131.68,131.68,0,0,0-19-1.32,140.56,140.56,0,0,0-19.51,1.32,287.73,287.73,0,0,1,20-40.19,42,42,0,0,0-18,5.5,57.21,57.21,0,0,0,.58-7.7,35.93,35.93,0,0,0-1.32-10.12,145.17,145.17,0,0,0,16.36.88,161.86,161.86,0,0,0,21-1.39C179.37,156.86,168,175.56,163.82,189.79Z"/><path class="cls-3" d="M203.28,189.79c6-1.25,11.88-3,16.94-7.56a64.55,64.55,0,0,0-.44,7.41A53.44,53.44,0,0,0,221,201.45a131.68,131.68,0,0,0-19-1.32,140.56,140.56,0,0,0-19.51,1.32,287.73,287.73,0,0,1,19.95-40.19,42,42,0,0,0-18,5.5,57.21,57.21,0,0,0,.58-7.7,35.93,35.93,0,0,0-1.32-10.12,145,145,0,0,0,16.35.88,161.89,161.89,0,0,0,21-1.39C218.83,156.86,207.46,175.56,203.28,189.79Z"/><path class="cls-3" d="M257,200.64a64.78,64.78,0,0,0-11.66,1.1c.58-2.27,1.46-3.15,1.46-7.63s-1.39-8.65-4-8.65c-2.86,0-3.81,3.74-3.81,8s1.25,5.87,1.54,7.63a85.71,85.71,0,0,0-9.61-.59,88.26,88.26,0,0,0-9.68.59c5.94-17.16,8.8-33.59,9.76-51.92a104.12,104.12,0,0,0,12.32.66,57.63,57.63,0,0,0,10.41-.73c.73,18.18,5.72,35.34,11.66,52.06A67.92,67.92,0,0,0,257,200.64Zm-14.89-37.18c-.73,5-2.13,7.55-2.13,9.9s1.32,3.74,2.72,3.74,2.64-1.61,2.71-3.74C245.45,173.36,245.45,171.31,242.15,163.46Z"/><path class="cls-3" d="M168.67,246.71a12.38,12.38,0,0,0-3.62-7.07,14.05,14.05,0,0,0-15-3,15.56,15.56,0,0,0-3.49,2,19.65,19.65,0,0,0-3,2.72,13,13,0,0,0-3.32,7.25,12.15,12.15,0,0,0,1.91,7.7,17,17,0,0,0,5.78,5.47l.08-.13h.05v0h0a.09.09,0,0,0,0-.05.08.08,0,0,1,0,0v0h0a7.73,7.73,0,0,1,2.18-4.63,4.44,4.44,0,0,1,2.29-1.28,4,4,0,0,1,2,.1,4.5,4.5,0,0,1,.58.21h0a5.72,5.72,0,0,1,.24.57c.09.22.19.43.26.65s.14.37.2.56a21.5,21.5,0,0,1,.88,4.56,30.24,30.24,0,0,1,.12,3.3c0,.33,0,.65.07,1,.1,1.15.34,1.77.68,2l0,0a.43.43,0,0,1,.12.05s0,0,.07,0v0h0v.08a1.54,1.54,0,0,0,1.19-.5,7.44,7.44,0,0,0,.85-.93,24.2,24.2,0,0,1,1.52-1.92,3.47,3.47,0,0,1,.87-.76,2.91,2.91,0,0,1,1.11-.31l1.23-.12c.39-.09.9-.13,1.15-.58l-.08,0,0,0a.91.91,0,0,0-.12-.76,4.77,4.77,0,0,0-.41-.65c-.3-.41-.63-.79-1-1.17-.67-.75-1.32-1.51-1.94-2.31a20,20,0,0,1-3.13-5.07,4.07,4.07,0,0,1,1.85-1.95,4.91,4.91,0,0,1,2.65-.59,3.76,3.76,0,0,1,2.45,1,.46.46,0,0,0,.07.07c.11.12.21.25.32.38l.18.26c.06.1.12.2.17.3s.15.31.21.48.05.11.07.18.1.38.15.59l0,.14.07,0s0,0,0,.06v0h.05l.14.06A14.32,14.32,0,0,0,168.67,246.71Zm-18.56,4.86a4.89,4.89,0,0,0-2.46,1.28,5.2,5.2,0,0,0-1.27,2.4,7.17,7.17,0,0,0-.09,2.39,8.76,8.76,0,0,0,1.09,3.24l-.7-.72a18.45,18.45,0,0,1-1.47-4.49,10.25,10.25,0,0,1-.12-2.87,5.22,5.22,0,0,1,1-2.63,2.83,2.83,0,0,1,2.43-1.17,4.54,4.54,0,0,1,2.57,1.08,8.11,8.11,0,0,1,1,.94l.17.19c.08.1.17.19.24.29s.23.29.33.44A4.22,4.22,0,0,0,150.11,251.57Zm15.44,11.91v0h0Zm-7-11.53a.25.25,0,0,1,0-.07l0,0S158.56,251.94,158.57,252Zm.43,1.75a.09.09,0,0,0,0-.06h0s0,0,0,0a0,0,0,0,0,0,0h0l0,0Zm4.27-7.68a6.47,6.47,0,0,0-2.71.72,5.35,5.35,0,0,0-2.15,1.86,3.83,3.83,0,0,0-.52,1.32,7.56,7.56,0,0,1-.22-2.68,5.15,5.15,0,0,1,.79-2.25,3.24,3.24,0,0,1,1.85-1.4,3,3,0,0,1,2.28.35,5.82,5.82,0,0,1,1.78,1.61c.19.25.35.52.52.79A4.41,4.41,0,0,0,163.27,246Z"/><path class="cls-3" d="M228.12,89.64a15,15,0,0,0-2.27-2.92A17.37,17.37,0,0,0,223,84.36a11.88,11.88,0,0,0-7-2.12,11,11,0,0,0-6.76,2.68A15.5,15.5,0,0,0,205,90.84l.13.06v0h0v0l0,0h.06a7.14,7.14,0,0,1,4.48,1.41,4.18,4.18,0,0,1,1.44,1.93,3.67,3.67,0,0,1,.16,1.8c0,.19-.07.37-.12.56h0a0,0,0,0,1,0,0,4.71,4.71,0,0,1-.48.29l-.56.32a4.44,4.44,0,0,1-.49.24,19.54,19.54,0,0,1-4,1.37c-1,.24-2,.36-3,.51a8.79,8.79,0,0,0-.89.19c-1,.23-1.56.52-1.71.86l0,0s0,.07,0,.1a.25.25,0,0,0,0,.07h0a1.43,1.43,0,0,0,.59,1,9.66,9.66,0,0,0,1,.66c.66.38,1.33.71,1.93,1.13a3.23,3.23,0,0,1,.8.71,2.42,2.42,0,0,1,.41,1c.1.36.17.72.27,1.1s.22.8.67,1l0-.08,0,0a.91.91,0,0,0,.68-.21,5.85,5.85,0,0,0,.54-.45q.49-.49.93-1c.61-.7,1.22-1.38,1.87-2a18,18,0,0,1,4.22-3.47,3.77,3.77,0,0,1,2,1.44,4.51,4.51,0,0,1,.86,2.33,3.43,3.43,0,0,1-.59,2.35l-.06.08q-.13.16-.3.33a1.37,1.37,0,0,1-.22.19,1.59,1.59,0,0,1-.24.2l-.41.25-.16.08a4,4,0,0,1-.52.2h-.13v.07l-.06,0h0v0l0,.13a13.15,13.15,0,0,0,7.28.13,11.33,11.33,0,0,0,6-4.16,12.94,12.94,0,0,0,.86-14Zm-22.47,17.43h0Zm8.17-7.18h-.08l.06,0h0l0,0Zm1.49-.6h0l.06,0S215.32,99.27,215.31,99.29Zm.75-7.06a7.63,7.63,0,0,1-.73,1l-.16.17a2.85,2.85,0,0,1-.23.26c-.11.12-.23.23-.36.35a3.83,3.83,0,0,0,0-2.48,4.42,4.42,0,0,0-1.46-2.08,4.64,4.64,0,0,0-2.33-.85,6.21,6.21,0,0,0-2.18.21,7.9,7.9,0,0,0-2.82,1.38l.58-.72a16.47,16.47,0,0,1,3.89-1.89,9.59,9.59,0,0,1,2.59-.46,4.88,4.88,0,0,1,2.52.55,2.6,2.6,0,0,1,1.36,2.06A4.19,4.19,0,0,1,216.06,92.23Zm7,9.73a5.12,5.12,0,0,1-1.25,1.81,7.26,7.26,0,0,1-.65.58,3.89,3.89,0,0,0,.09-1.51,5.8,5.8,0,0,0-1-2.38,4.79,4.79,0,0,0-2-1.72,3.25,3.25,0,0,0-1.26-.31,6.69,6.69,0,0,1,2.41-.53,4.77,4.77,0,0,1,2.14.43,3,3,0,0,1,1.5,1.52A2.76,2.76,0,0,1,223.06,102Z"/><path class="cls-4" d="M219.53,133.38a8.73,8.73,0,0,0-3.6-5.18,8.69,8.69,0,0,0,1.14-6.36,8.43,8.43,0,0,0-4.43-5.8,8.52,8.52,0,0,0-7.15-.21,8,8,0,0,0-4.41,5.18,7.87,7.87,0,0,0-6.11-2.45,8.44,8.44,0,0,0-6.12,3.24,8.08,8.08,0,0,0-1.54,3.27,8.5,8.5,0,0,0-.2,1.84A8.47,8.47,0,0,0,190.8,134a8.66,8.66,0,0,0-.44,6,8.38,8.38,0,0,0,10.85,5.57,7.89,7.89,0,0,0,4.53-4.33,7.92,7.92,0,0,0,6.19,2.49,8.42,8.42,0,0,0,6.15-3.34A8.33,8.33,0,0,0,219.53,133.38Zm-25.83,4.94a4.94,4.94,0,0,1,.41-2.42,26.3,26.3,0,0,1,1.45-2.37l.56-.91-1-.62-1.32-.83-.33-.21-.28-.2c-.16-.12-.28-.23-.45-.37a4.88,4.88,0,0,1-1.24-2,4.47,4.47,0,0,1,1-4.34,4.39,4.39,0,0,1,6.13-.35l2.29,2.07,1.8,1.62.76-2.28c.34-1,.66-2.1,1-3.07a4.45,4.45,0,0,1,1.36-2,4.7,4.7,0,0,1,4.78-.76,5,5,0,0,1,3,4.17,5,5,0,0,1-.54,2.74,5.63,5.63,0,0,1-.37.62l-.47.65-1,1.32-.41.56.58.26,2.06.95.48.25a4,4,0,0,1,.44.27,4.86,4.86,0,0,1,.81.68,5.59,5.59,0,0,1-.15,7.86,5.64,5.64,0,0,1-7.26.62,11.53,11.53,0,0,1-1.3-1.14l-1.27-1.23-.15-.14-.11.19c-.46.85-.91,1.73-1.39,2.57a5.63,5.63,0,0,1-2,1.93,5.43,5.43,0,0,1-5.2.06A5.21,5.21,0,0,1,193.7,138.32Zm6,7-.18,0Zm5.25-3a.5.5,0,0,1-.08.12A.5.5,0,0,0,204.9,142.34Zm-1.27,1.31.22-.18Z"/><path class="cls-3" d="M110.85,87.67a8.12,8.12,0,0,0-4,4.21,8,8,0,0,0-6,.11,7.78,7.78,0,0,0-3.37,11.6,7.35,7.35,0,0,0,5.49,3.07,7.36,7.36,0,0,0-1.12,6,7.89,7.89,0,0,0,4.05,5,7.65,7.65,0,0,0,4.95.66,8.24,8.24,0,0,0,1.6-.48,8.08,8.08,0,0,0,4.18-4.16,8,8,0,0,0,5.51-.67,7.76,7.76,0,0,0,3.11-10.86,7.3,7.3,0,0,0-4.75-3.33,7.31,7.31,0,0,0,1.14-6.08,7.78,7.78,0,0,0-10.76-5ZM120,110.24a4.49,4.49,0,0,1-2.27.07c-.67-.16-1.57-.58-2.41-.89l-.93-.35-.38,1-.52,1.36-.13.33-.13.3c-.08.15-.15.29-.26.47a4.47,4.47,0,0,1-1.63,1.49,4.12,4.12,0,0,1-4.12-.11,4.07,4.07,0,0,1-1.43-5.51l1.47-2.45L108.4,104l-2.21-.28c-1-.13-2-.22-3-.32a4.14,4.14,0,0,1-2-.88,4.34,4.34,0,0,1-1.55-4.21,4.55,4.55,0,0,1,3.23-3.5,4.75,4.75,0,0,1,2.59,0c.21.07.42.14.63.23l.68.31,1.36.63.58.26.14-.57.49-2c0-.14.09-.33.14-.48s.1-.3.16-.45a4.84,4.84,0,0,1,.48-.86,5.17,5.17,0,0,1,7.17-1.28,5.22,5.22,0,0,1,1.87,6.48,10.91,10.91,0,0,1-.81,1.39l-.88,1.38-.1.15.19.07c.86.26,1.74.52,2.58.8a5.16,5.16,0,0,1,2.11,1.45,5,5,0,0,1,1,4.71A4.8,4.8,0,0,1,120,110.24Zm5.32-6.66a.88.88,0,0,1,0,.15A.88.88,0,0,0,125.31,103.58Zm-3.68-4.24a.75.75,0,0,1,.13.06A.75.75,0,0,0,121.63,99.34Zm1.42.92-.21-.16Z"/><path class="cls-3" d="M142.74,122.89l-.15.11.14-.11a7.76,7.76,0,0,0-4-2.69,12.13,12.13,0,0,0-4.87-.3,20,20,0,0,0-9,3.67,15,15,0,0,0-5.78,7.74,7.71,7.71,0,0,0-.11.84,3.54,3.54,0,0,0-.07.47,8.87,8.87,0,0,0-.08,1.71c0,.2,0,.41.06.62s0,.22,0,.33,0,.32.08.48,0,.29.06.43.15.3.2.47a11.94,11.94,0,0,0,.61,1.46,8.15,8.15,0,0,0,.49.8,11,11,0,0,0,.67,1c.14.18.25.4.41.57l0,0h0l0,0a6.08,6.08,0,0,0,3.89,2.05,11.36,11.36,0,0,0,4.42-.34,22.69,22.69,0,0,0,7.87-4,20.06,20.06,0,0,0,5.66-6.78,9.64,9.64,0,0,0,1-4.32A7.09,7.09,0,0,0,142.74,122.89Zm-17.26,4.73c-1.6-2.42,3.88-5.11,4.7-3S126.59,129.33,125.48,127.62Z"/><path class="cls-5" d="M185.81,262.29l.09-.13-.09.13a7,7,0,0,0,4.1,1.24,10.88,10.88,0,0,0,4.2-1,17.74,17.74,0,0,0,6.64-5.42,13.3,13.3,0,0,0,2.89-8c0-.25-.1-.49-.13-.73s0-.29-.06-.43a7.2,7.2,0,0,0-.38-1.45,2.87,2.87,0,0,0-.21-.51l-.12-.27-.2-.39c-.06-.11-.09-.23-.16-.34s-.2-.22-.28-.35a10,10,0,0,0-.9-1.07,8.24,8.24,0,0,0-.62-.56c-.25-.21-.53-.42-.81-.63s-.31-.26-.49-.37v0h0l0,0a5.42,5.42,0,0,0-3.82-.72,10,10,0,0,0-3.64,1.43,19.74,19.74,0,0,0-5.61,5.43,17.6,17.6,0,0,0-3,7.18,8.36,8.36,0,0,0,.27,3.91A6.13,6.13,0,0,0,185.81,262.29Zm13.36-8.45c2,1.64-2,5.32-3.19,3.77S197.79,252.69,199.17,253.84Z"/><path class="cls-4" d="M253.8,123.38v0a.73.73,0,0,0,.76-.21,1.25,1.25,0,0,0,.18-.79,6.57,6.57,0,0,0-.3-1.59,21,21,0,0,0-1.14-2.88,8.25,8.25,0,0,0,1.39.24,3.31,3.31,0,0,0,.77,0,.83.83,0,0,0,.66-.4.8.8,0,0,0,0-.57.93.93,0,0,0,0-.13s0,0,0-.06a.05.05,0,0,1,0,0c-.08-.16-.2-.34-.27-.46l0,0-.06-.11-.07-.07-.41-.55a1.8,1.8,0,0,0,1,.37,1.23,1.23,0,0,0,1.07-.82,4.89,4.89,0,0,0,.38-1.25,20.52,20.52,0,0,0,4.47,2.35,5.45,5.45,0,0,0,1.26.27,1.44,1.44,0,0,0,1.22-.38,1.8,1.8,0,0,0,.29-1.25,6.11,6.11,0,0,0-.26-1.2,11.09,11.09,0,0,0,2.76,0,4.67,4.67,0,0,0,1.37-.34,2.16,2.16,0,0,0,1.06-.92l0,0h0a1.91,1.91,0,0,0-.41-1.54c-.1-.14-.22-.26-.33-.39l0,0a8.73,8.73,0,0,0-.75-.74c-.06-.06-.14-.1-.21-.16-.29-.23-.57-.45-.85-.64l-.51-.34-.82-.51-.24-.14a2.15,2.15,0,0,0,.17-.9,1.31,1.31,0,0,0-.4-.88,3.46,3.46,0,0,0-1.76-.75l-.31,0c-.39-.05-.79-.08-1.17-.09s-.74,0-1.1,0l-.71,0-.36,0a2.25,2.25,0,0,0,.37-.54,1,1,0,0,0,.05-.84,1,1,0,0,0-.66-.52,2,2,0,0,0-.23,0,.9.9,0,0,0-.23,0c-.12,0-.24,0-.36,0A5.92,5.92,0,0,0,257,104a9,9,0,0,0,1-1,2.62,2.62,0,0,0,.66-1.46,1.38,1.38,0,0,0-1-1.23l-.14,0a2.6,2.6,0,0,0-.47-.16l-.35-.08-.49-.07a12.1,12.1,0,0,0,1.42-1.77,3.38,3.38,0,0,0,.48-1.1,1,1,0,0,0,0-.6.73.73,0,0,0-.17-.26.93.93,0,0,0-.27-.19c-1.47-.72-3.43.74-3.82,1a2.37,2.37,0,0,0,.17-.94.83.83,0,0,0-.11-.4h0a.46.46,0,0,0-.13-.18.63.63,0,0,0-.12-.11l-.09,0a1.34,1.34,0,0,0-.76-.14c-.73,0-1.41.78-2,1.65a1.37,1.37,0,0,0-.13.2l-.33.58-.13.23-.06.16a15,15,0,0,0-.69,1.64.77.77,0,0,0-.07.16l-.05,0a.55.55,0,0,0-.77-.07h0a1.09,1.09,0,0,0-.22.17l0,0,0,0a1.82,1.82,0,0,0-.3.4,3.73,3.73,0,0,0-.32.63l0,.2a6.31,6.31,0,0,0-.18.72,6.48,6.48,0,0,0-.1.77.76.76,0,0,1,0,.15c0,.19,0,.39,0,.58a9.68,9.68,0,0,0,1.17,4.14,6.26,6.26,0,0,0-.13,1.08l-1.17-.06c-1.9-.06-4.83-.28-6.76-.15l0,0h0v0l0,0,.59.92.65.86,0,0v0c1.84-.24,3.7-.36,5.56-.43h1.12a4.63,4.63,0,0,0,0,1,7.33,7.33,0,0,0-1.75,2.54,2.15,2.15,0,0,0-.1.27,6.81,6.81,0,0,0-.23.68l-.1.3c0,.15-.05.31-.08.46s0,.24-.06.35a6,6,0,0,0-.07,1.12v.1c0,.13,0,.25,0,.38a1.88,1.88,0,0,0,.45,1.13.57.57,0,0,0,.6.1,1.52,1.52,0,0,0,.44-.31,15.14,15.14,0,0,0,.07,1.78,5.14,5.14,0,0,0,.5,1.8,1,1,0,0,0,.75.53.88.88,0,0,0,.83-.39,3.5,3.5,0,0,0,.53-1.69,8.16,8.16,0,0,0,1.43,2.09A4.13,4.13,0,0,0,253.8,123.38Zm0,0a3,3,0,0,1-.65-.24,3,3,0,0,0,.64.21h.11l-.1,0Zm-1.52-15.93,0,0h0Zm-10,2.76-.56.09a.06.06,0,0,0,0,0Zm27.36,2.39h0ZM249.24,108c1-.16,2-.33,3-.53l-.07.07-.62.7c-.16.19-.32.35-.48.55h0c-.67-.06-1.33-.1-2-.14h.14A5.07,5.07,0,0,1,249.24,108Zm-.3,1.82H251c.46.87.94,1.73,1.46,2.56l-.86-.42h0l-2.51-1.28a3.66,3.66,0,0,1,.09-.79Z"/><path class="cls-4" d="M137.52,90.58h0a.68.68,0,0,0,.12.71,1.13,1.13,0,0,0,.68.24,5.87,5.87,0,0,0,1.45-.1,20.61,20.61,0,0,0,2.7-.71,7,7,0,0,0-.36,1.21,2.7,2.7,0,0,0-.07.69.79.79,0,0,0,.29.63.7.7,0,0,0,.51.05l.12,0,.06,0h0l.43-.19.06,0,.1,0,.07,0c.16-.09.35-.19.54-.31a1.65,1.65,0,0,0-.44.81,1.12,1.12,0,0,0,.62,1,5,5,0,0,0,1.08.48A17.7,17.7,0,0,0,143,98.68a5,5,0,0,0-.38,1.1,1.3,1.3,0,0,0,.21,1.13,1.57,1.57,0,0,0,1.09.39,5.77,5.77,0,0,0,1.1-.1,9.73,9.73,0,0,0-.34,2.46,4.16,4.16,0,0,0,.17,1.26,1.81,1.81,0,0,0,.71,1v0a1.7,1.7,0,0,0,1.42-.21l.38-.25.06,0a8.07,8.07,0,0,0,.73-.58l.17-.18q.36-.34.66-.69t.36-.42l.54-.68.15-.2a2,2,0,0,0,.79.25,1.19,1.19,0,0,0,.83-.27,3.1,3.1,0,0,0,.85-1.5,2.56,2.56,0,0,0,.05-.27,7.34,7.34,0,0,0,.2-1c.05-.32.09-.65.11-1s0-.47,0-.64,0-.21,0-.32a2.43,2.43,0,0,0,.45.39,1,1,0,0,0,.75.13.91.91,0,0,0,.53-.54,1.77,1.77,0,0,0,0-.2c0-.07,0-.14.05-.21a3,3,0,0,0,.07-.32,5.58,5.58,0,0,0-.23-1.72,7.29,7.29,0,0,0,.77,1,2.32,2.32,0,0,0,1.23.75,1.26,1.26,0,0,0,1.2-.73,1.33,1.33,0,0,1,.06-.12c.07-.13.13-.27.19-.41a2.64,2.64,0,0,0,.1-.3,3,3,0,0,0,.12-.43,11,11,0,0,0,1.44,1.46,3.27,3.27,0,0,0,.92.54,1,1,0,0,0,.55,0,.56.56,0,0,0,.24-.13.64.64,0,0,0,.21-.22c.79-1.24-.3-3.15-.52-3.52a2.17,2.17,0,0,0,.82.25.8.8,0,0,0,.37-.06,0,0,0,0,1,0,0,.56.56,0,0,0,.17-.09l.12-.1,0-.07a1.21,1.21,0,0,0,.2-.67c0-.66-.55-1.34-1.27-1.93l-.16-.13-.48-.36-.2-.14-.13-.07a13.09,13.09,0,0,0-1.4-.79l-.13-.08,0,0a.5.5,0,0,0,.14-.68h0a.8.8,0,0,0-.13-.21l0,0s0,0,0,0a1.9,1.9,0,0,0-.32-.31,4.41,4.41,0,0,0-.53-.35,1.27,1.27,0,0,0-.18-.06,4.45,4.45,0,0,0-.62-.24,5.2,5.2,0,0,0-.68-.17l-.13,0a5.16,5.16,0,0,0-.52-.09,8.65,8.65,0,0,0-3.83.61,5.61,5.61,0,0,0-.94-.23c.06-.35.12-.7.17-1,.25-1.69.76-4.29.84-6l0,0v0h0l0,0-.88.43-.84.49,0,0h0c0,1.67-.07,3.35-.2,5,0,.34-.07.67-.11,1a4.62,4.62,0,0,0-.87-.14,6.46,6.46,0,0,0-2.08-1.83l-.23-.12a6.36,6.36,0,0,0-.59-.28l-.25-.11a2.77,2.77,0,0,0-.41-.12l-.3-.1a5.65,5.65,0,0,0-1-.17h-.08c-.12,0-.23,0-.35,0a1.7,1.7,0,0,0-1.05.28.51.51,0,0,0-.15.53,1.19,1.19,0,0,0,.23.43,12.33,12.33,0,0,0-1.61-.12,4.2,4.2,0,0,0-1.65.26.9.9,0,0,0-.56.61.79.79,0,0,0,.26.78,3.24,3.24,0,0,0,1.45.65,7.31,7.31,0,0,0-2,1.06A3.7,3.7,0,0,0,137.52,90.58Zm0,0a2.93,2.93,0,0,1,.28-.56,3.94,3.94,0,0,0-.26.55s0,.06,0,.1,0-.06,0-.09Zm14.4.31s0,0,0,0,0,0,0,0Zm-1.41-9.21c0-.17,0-.34,0-.51h0C150.56,81.36,150.55,81.53,150.55,81.69Zm-5,24.22Zm6.2-17.8c0,.91.09,1.81.16,2.71l-.06-.06c-.18-.22-.37-.42-.56-.63l-.44-.49h0c.13-.6.24-1.18.34-1.78V88A4.21,4.21,0,0,1,151.73,88.11Zm-1.59-.46c-.07.62-.14,1.23-.22,1.85-.83.31-1.65.66-2.44,1l.46-.73h0l1.41-2.11a2.5,2.5,0,0,1,.69.16Z"/><path class="cls-6" d="M98.36,126a7.49,7.49,0,1,0,2.14,5.24A7.45,7.45,0,0,0,98.36,126ZM89,128c.78.19.12,4.08-1.59,3.11S86.82,127.44,89,128Zm5.74-3a4.94,4.94,0,0,1,1.08,1.63,5.66,5.66,0,0,1,.11,4.06l-.16.47-.57.16a2.39,2.39,0,0,1-1.79-.22,4.2,4.2,0,0,1-1-.91,10.53,10.53,0,0,1-1.18-1.85c-.32-.6-.61-1.18-.94-1.7a2.4,2.4,0,0,0-1.4-1.16,2.23,2.23,0,0,1,1.76.78,10.84,10.84,0,0,1,1.25,1.61A17.94,17.94,0,0,0,93,129.54a3.19,3.19,0,0,0,.81.69,1.45,1.45,0,0,0,1.08.14H95l0-.05a5.78,5.78,0,0,0,.07-3.49,6.35,6.35,0,0,0-1.9-2.9A4.71,4.71,0,0,1,94.69,125Zm-2.42,2.11c-.22.25-2.41-1.84-1.6-2.13S92.86,126.4,92.27,127.1Z"/><path class="cls-6" d="M185.54,90.24a5.54,5.54,0,1,0-3.94,1.47A5.52,5.52,0,0,0,185.54,90.24Zm-1.24-7c-.16.57-3,0-2.27-1.26S184.74,81.63,184.3,83.2Zm2.07,4.34a3.63,3.63,0,0,1-1.23.76,3.74,3.74,0,0,1-1.48.27,3.69,3.69,0,0,1-1.55-.29l-.34-.13-.11-.43a1.77,1.77,0,0,1,.21-1.31,3.14,3.14,0,0,1,.7-.77,8.47,8.47,0,0,1,1.41-.83c.45-.22.89-.42,1.28-.66a1.77,1.77,0,0,0,.9-1,1.62,1.62,0,0,1-.63,1.29,6.9,6.9,0,0,1-1.23.89,11.45,11.45,0,0,0-1.27.87,2.27,2.27,0,0,0-.53.58,1.12,1.12,0,0,0-.14.8v0l0,0a4.25,4.25,0,0,0,2.59.14,4.78,4.78,0,0,0,2.2-1.34A3.55,3.55,0,0,1,186.37,87.54Zm-1.51-1.85c-.18-.17,1.43-1.75,1.63-1.14S185.37,86.14,184.86,85.69Z"/><path class="cls-6" d="M149.37,225.34a9.25,9.25,0,0,0,.48-13.08,9.26,9.26,0,0,0-16,6.05,9.27,9.27,0,0,0,15.55,7Zm-2.08-11.78c-.26,1-5.08,0-3.79-2.1S148,210.94,147.29,213.56Zm3.47,7.27a6.52,6.52,0,0,1-2.07,1.27,6.71,6.71,0,0,1-2.47.45,6.47,6.47,0,0,1-2.59-.48l-.57-.22-.18-.72a2.91,2.91,0,0,1,.35-2.2,4.91,4.91,0,0,1,1.17-1.28,13.82,13.82,0,0,1,2.35-1.4c.76-.37,1.49-.7,2.15-1.1a2.93,2.93,0,0,0,1.5-1.69,2.79,2.79,0,0,1-1.05,2.17,13.21,13.21,0,0,1-2,1.48,20,20,0,0,0-2.13,1.45,3.8,3.8,0,0,0-.89,1,1.82,1.82,0,0,0-.23,1.33l0,.08.06,0a7.06,7.06,0,0,0,4.33.23,7.81,7.81,0,0,0,3.68-2.24A6.09,6.09,0,0,1,150.76,220.83Zm-2.53-3.11c-.3-.27,2.38-2.91,2.72-1.9S149.07,218.49,148.23,217.72Z"/><path class="cls-2" d="M174.55,292.45c.25-.64.32-1.33.56-1.94a9.42,9.42,0,0,1,.89-1.8,22.86,22.86,0,0,1,2.57-3.1,6.49,6.49,0,0,0,1.16-1.67,2,2,0,0,0-.28-2l0,0,0-.05a3.57,3.57,0,0,0-2.3-1.19,12.83,12.83,0,0,0-2.62-.17,26.67,26.67,0,0,0-5.2.7,29,29,0,0,0-5,1.66,7,7,0,0,0-2.05,1.4l-.08.08,0,0a4,4,0,0,0-.43.56l0,0a3.82,3.82,0,0,0-.49,1.12s0,0,0,.06a4.32,4.32,0,0,0-.08,1.61.13.13,0,0,1,0,.06,7.64,7.64,0,0,0,.17.77,9.59,9.59,0,0,0,.85,2.07,19.11,19.11,0,0,0,2.35,3.29,6.91,6.91,0,0,0,3.46,2.1,5.56,5.56,0,0,0,4-.56A5.86,5.86,0,0,0,174.55,292.45Zm-10.35-6.28c-.38-2.47,5.21-4.09,6-2C171.37,287.25,164.58,288.63,164.2,286.17Zm13.74-2.94a4.83,4.83,0,0,1-1.9.11.7.7,0,0,1-.44-.31.54.54,0,0,1,.08-.54,2.56,2.56,0,0,1,.72-.64,7.23,7.23,0,0,1,1-.49,5,5,0,0,1,.56.06c-.3.36-.59.67-.85.94.22,0,.46,0,.71,0a10.66,10.66,0,0,1,1.77.2l0,.19A15.28,15.28,0,0,1,177.94,283.23Z"/><path class="cls-2" d="M162.52,117c.22.57.58,1.07.79,1.62a8.81,8.81,0,0,1,.48,1.72,21.56,21.56,0,0,1,.14,3.6,5.27,5.27,0,0,0,.22,1.8,1.8,1.8,0,0,0,1.35,1.15v0a3.2,3.2,0,0,0,2.24-.58,11.32,11.32,0,0,0,1.85-1.44,23.94,23.94,0,0,0,3-3.56,25.59,25.59,0,0,0,2.32-4.07,6.35,6.35,0,0,0,.53-2.14V115s0,0,0,0a4.46,4.46,0,0,0-.05-.63v0a3.29,3.29,0,0,0-.34-1l0-.05a3.7,3.7,0,0,0-.91-1.11l0,0a4.16,4.16,0,0,0-.57-.41,8,8,0,0,0-1.79-.87,17,17,0,0,0-3.53-.79,6.12,6.12,0,0,0-3.54.66,4.94,4.94,0,0,0-2.32,2.74A5.25,5.25,0,0,0,162.52,117Zm10.63-2c1.72,1.41-1,5.82-2.84,4.88C167.74,118.56,171.43,113.59,173.15,115Zm-7.4,10.13a4.19,4.19,0,0,1,1.21-1.2.58.58,0,0,1,.47-.06.5.5,0,0,1,.27.41,2.19,2.19,0,0,1-.1.85,6.3,6.3,0,0,1-.34.89,4,4,0,0,1-.42.3c0-.42,0-.79,0-1.14-.16.13-.31.27-.49.41a9.25,9.25,0,0,1-1.3.92l-.12-.11A13,13,0,0,1,165.75,125.14Z"/><path class="cls-2" d="M75.35,98.35c-.52-.06-1,0-1.53,0a6.73,6.73,0,0,1-1.47-.3,17.65,17.65,0,0,1-2.75-1.29,4.74,4.74,0,0,0-1.44-.54,1.52,1.52,0,0,0-1.39.57l0,0,0,0a2.63,2.63,0,0,0-.44,1.91,10,10,0,0,0,.36,1.95,20.11,20.11,0,0,0,1.5,3.66,22,22,0,0,0,2.15,3.33,5.33,5.33,0,0,0,1.41,1.22l.07,0h0a2.13,2.13,0,0,0,.49.21h0a2.58,2.58,0,0,0,.9.15h0A3.14,3.14,0,0,0,74.5,109l0,0a3.4,3.4,0,0,0,.54-.27,7,7,0,0,0,1.35-1,14.65,14.65,0,0,0,2-2.34,5.22,5.22,0,0,0,.88-2.92,4.23,4.23,0,0,0-1.16-2.81A4.46,4.46,0,0,0,75.35,98.35Zm-2.64,8.74c-1.73.75-4-3-2.57-4C72.15,101.65,74.44,106.35,72.71,107.09ZM68,97.61A3.67,3.67,0,0,1,68.41,99a.53.53,0,0,1-.14.38.44.44,0,0,1-.41,0,2,2,0,0,1-.61-.41,5.05,5.05,0,0,1-.53-.6,3,3,0,0,1-.06-.43l.85.45c0-.17-.09-.34-.12-.53a8.39,8.39,0,0,1-.18-1.33l.12,0A11.11,11.11,0,0,1,68,97.61Z"/><path class="cls-2" d="M169.39,216.05c-.32,0-.63,0-.93,0a4.5,4.5,0,0,1-.9-.19,10.6,10.6,0,0,1-1.67-.79,2.74,2.74,0,0,0-.88-.32,1,1,0,0,0-.85.34l0,0,0,0a1.62,1.62,0,0,0-.26,1.16,5.23,5.23,0,0,0,.22,1.18,11.73,11.73,0,0,0,.91,2.23,13.43,13.43,0,0,0,1.31,2,3.1,3.1,0,0,0,.86.75l0,0h0l.29.13h0a1.76,1.76,0,0,0,.55.09h0a1.86,1.86,0,0,0,.72-.15h0a2.48,2.48,0,0,0,.32-.17,4.06,4.06,0,0,0,.82-.61,9,9,0,0,0,1.2-1.42,3.23,3.23,0,0,0,.53-1.78,2.53,2.53,0,0,0-.7-1.71A2.69,2.69,0,0,0,169.39,216.05Zm-1.61,5.32c-1.05.46-2.41-1.84-1.56-2.45C167.44,218.06,168.83,220.92,167.78,221.37Zm-2.88-5.77a2.18,2.18,0,0,1,.26.83.32.32,0,0,1-.08.24.25.25,0,0,1-.25,0,1.05,1.05,0,0,1-.37-.25,2.82,2.82,0,0,1-.33-.36l0-.26q.28.13.51.27a3,3,0,0,1-.06-.32,3.94,3.94,0,0,1-.12-.81l.08,0A6.48,6.48,0,0,1,164.9,215.6Z"/><path class="cls-2" d="M241.88,143.61c.69-.07,1.33-.3,2-.37a9.55,9.55,0,0,1,2,0,22.3,22.3,0,0,1,3.92.92,6.19,6.19,0,0,0,2,.29,2,2,0,0,0,1.65-1.12l-.06,0,.06,0a3.54,3.54,0,0,0,0-2.6,12.5,12.5,0,0,0-1-2.42,26.69,26.69,0,0,0-2.94-4.34,28.27,28.27,0,0,0-3.71-3.71,7,7,0,0,0-2.16-1.21l-.11,0h0a4.13,4.13,0,0,0-.7-.14h0a3.83,3.83,0,0,0-1.22.06h-.05a4.35,4.35,0,0,0-1.48.66l-.05,0a7.14,7.14,0,0,0-.62.5,9.43,9.43,0,0,0-1.47,1.68,19.73,19.73,0,0,0-1.9,3.57,6.94,6.94,0,0,0-.33,4,5.47,5.47,0,0,0,2.27,3.32A5.87,5.87,0,0,0,241.88,143.61Zm1-12.07c2-1.43,6,2.84,4.44,4.52C245.12,138.44,240.86,133,242.89,131.54Zm8.75,11a4.75,4.75,0,0,1-.93-1.66.64.64,0,0,1,.08-.53.51.51,0,0,1,.51-.16,2.37,2.37,0,0,1,.9.36,6.54,6.54,0,0,1,.86.63c.07.18.14.35.2.54-.46-.12-.86-.24-1.23-.35.09.21.2.42.29.65a9.38,9.38,0,0,1,.61,1.68l-.15.1A15.24,15.24,0,0,1,251.64,142.54Z"/><text class="cls-7" transform="translate(175.56 240.02) rotate(-13.99)">H<tspan class="cls-8" x="23.93" y="0">ome </tspan></text></g></g></svg>