<svg xmlns="http://www.w3.org/2000/svg" viewBox="0 0 207.34 134.25"><defs><style>.cls-1{fill:#dc3836;}.cls-2{fill:#fff;}</style></defs><g id="Capa_2" data-name="Capa 2"><g id="logo"><path class="cls-1" d="M129.33,67.53h.14a5.62,5.62,0,0,0,2.95-1.88l.16-.16c.74-.73,1.42-1.49,2.22-2.4l.4-.47c1.47-1.7,2.74-3.17,4.79-3.79l.53-.16.78-.24L143.43,56a4.42,4.42,0,0,0-1.53-.27h0a11.52,11.52,0,0,0-2.57.6l-.54.16c-2,.62-3.31,2.09-4.78,3.79l-.4.47c-.8.91-1.49,1.67-2.22,2.4l-.16.16a5.62,5.62,0,0,1-2.95,1.88h-.14a2,2,0,0,1-.49,0,2.41,2.41,0,0,0,.24,1.67A1.48,1.48,0,0,0,129.33,67.53ZM99,75.18c1.39-.09,2.93-1.66,4.4-3.35l.22-.25c.38-.42.75-.86,1.12-1.3,1.31-1.56,2.56-3,4.31-3.69.61-.22,1.17-.4,1.71-.55l.81-.88L113,63.6a4.7,4.7,0,0,0-1.56-.25h-.12a16.88,16.88,0,0,0-3.48.93c-1.76.65-3,2.13-4.32,3.69-.37.44-.73.88-1.11,1.3l-.23.25c-1.46,1.69-3,3.26-4.39,3.36a1.78,1.78,0,0,1-.57-.06,2,2,0,0,0,.49,1.93A1.64,1.64,0,0,0,99,75.18Zm38.7,1q-.44.46-.9.93a20.73,20.73,0,0,0-1.95,2.21,5.2,5.2,0,0,0,2.24.27c.27,0,.56-.07.85-.12l.06-.06c.3-.31.6-.62.89-.94,1.91-2,3.87-4.18,5.78-6.3l.1-.12c3.9-4.35,7.92-8.85,11.81-13.34.87-1,1.72-2,2.52-3a4.6,4.6,0,0,1,1.48-.93l.4-.19c1.23-1.62,2.51-3.19,3.84-4.69a6.3,6.3,0,0,0,.4-3.66,2.08,2.08,0,0,0-1.07-1.32,9.84,9.84,0,0,1-.88,3.63,6.31,6.31,0,0,1-2.53,3.2,8.8,8.8,0,0,1-1.35.73,4.6,4.6,0,0,0-1.48.93c-.8,1-1.65,2-2.53,3-3.89,4.48-7.91,9-11.8,13.33l-.11.12C141.58,72,139.61,74.12,137.71,76.18Zm-30.23,7.44-.41.45-.77.81a17.83,17.83,0,0,0-2,2.28,6.53,6.53,0,0,0,1.75.06c.51,0,1-.11,1.57-.2l.61-.65.42-.45c1.67-1.81,3.35-3.62,5-5.45,3.38-3.76,7-7.84,11.39-12.84.74-.84,1.47-1.7,2.2-2.55a1.47,1.47,0,0,1-.57-.51,3,3,0,0,1-.08-2.43c-.9,1.08-1.82,2.14-2.75,3.19-4.38,5-8,9.08-11.39,12.84C110.83,80,109.16,81.81,107.48,83.62Zm80.23-18.34a4,4,0,0,0,1.64-.7,45,45,0,0,1,2.14-5.06l.07-.14c.64-1.32,1.28-2.63,1.93-4,1.35-2.76,2.76-5.61,4-8.47a27.09,27.09,0,0,0,2.23-6.31c.1-.57.4-2.31-.89-3.1-.06,0-.14,0-.21-.09a6.68,6.68,0,0,1-.09.89,27.09,27.09,0,0,1-2.23,6.31c-1.29,2.86-2.69,5.71-4,8.47-.65,1.32-1.3,2.63-1.93,3.95l-.07.15c-3,6.11-2.78,7.75-2.7,8.05Zm-22.8,6.2c.09.56.32.74.88.7a1.75,1.75,0,0,0,.36-.07,15.53,15.53,0,0,1,.93-3,37.89,37.89,0,0,1,2.08-4.3,65.89,65.89,0,0,1,7.41-10.38,41.7,41.7,0,0,1,4.93-4.83L183.78,45c-3.17,1.51-6,4.36-8.4,7.06A65.25,65.25,0,0,0,168,62.48a37.29,37.29,0,0,0-2.09,4.31A9.78,9.78,0,0,0,164.91,71.48ZM61.79,56c-.92,2.07-2,4.1-3,6.07-.52,1-1,2-1.54,3-.78,1.52-1.48,3-2.18,4.65,1-.43,1.95-.88,2.88-1.34.16-.34.32-.68.49-1,.5-1,1-2,1.55-3,1-2,2.12-4,3-6.07,1.12-2.52.23-3.74-.39-4.24-.09-.07-.19-.12-.28-.18A5.36,5.36,0,0,1,61.79,56Zm18.76,9.41A49,49,0,0,0,84.62,60C91.33,49.62,91,42,88,37.47c1.78,4.63,1.16,11.45-4.52,20.24a49,49,0,0,1-4.07,5.4A69.63,69.63,0,0,1,57.1,79.82c-1.07.51-2.21,1-3.36,1.52q-.87.38-1.74.72a5.59,5.59,0,0,1-.62.21,3.79,3.79,0,0,0-.72.27c0,.07-.16.56-.23.82s-.1.39-.15.55L48.7,88.73c-.29.89-.58,1.78-.86,2.67a87.08,87.08,0,0,1-3.55,9.74c-4.39,9.58-10.77,17.86-18,23.31-4.56,3.45-9,5.5-13.08,6.09l-.8.08h0a8.72,8.72,0,0,1-8.15-3.9c0,.13.09.26.14.38a8.9,8.9,0,0,0,9.21,5.82h0l.8-.09c4.12-.58,8.52-2.63,13.08-6.08,7.2-5.45,13.59-13.73,18-23.31A87.08,87.08,0,0,0,49,93.7c.28-.89.57-1.78.86-2.67l1.58-4.82c.05-.16.1-.35.16-.55a7.34,7.34,0,0,1,.23-.82,3.79,3.79,0,0,1,.72-.27,6.17,6.17,0,0,0,.61-.21q.87-.35,1.74-.72c1.16-.49,2.29-1,3.36-1.53A69.24,69.24,0,0,0,80.55,65.41Zm84.54,16.24A20.21,20.21,0,0,1,157.72,84a6.75,6.75,0,0,1-5.83-2l-.39.29c-3.08,2.42-9.51,7.44-18.23,8.89-1,.16-1.87.27-2.71.33-4,.28-6.76-.57-8.12-2.54a65.65,65.65,0,0,1-10.74,6.21c-3.61,1.57-8.55,3.71-13.47,4.06a18.77,18.77,0,0,1-3.45-.07,6.2,6.2,0,0,1-4.39-2.71l-.69.41c-1.84,1.1-3.68,2.19-5.54,3.25l-1,.57c-3.88,2.23-8.28,4.75-12.93,5.2l-.23,0a5.44,5.44,0,0,1-4.11-1.14,1.92,1.92,0,0,1,0,.22c.45,2.22,2.42,3.42,5.27,3.22l.23,0c4.65-.45,9-3,12.93-5.2l1-.57c1.86-1.06,3.71-2.16,5.55-3.25l.68-.42A6.2,6.2,0,0,0,96,101.41a18.86,18.86,0,0,0,3.46.07c4.91-.35,9.85-2.49,13.46-4.06a65.21,65.21,0,0,0,10.74-6.21c1.36,2,4.09,2.82,8.12,2.54.85-.06,1.76-.17,2.72-.33,8.72-1.46,15.14-6.48,18.23-8.89l.38-.3a6.74,6.74,0,0,0,5.83,2.06A20.21,20.21,0,0,0,166.28,84a50.28,50.28,0,0,0,11-7.79,7.68,7.68,0,0,1-1.11-2.38A50.21,50.21,0,0,1,165.09,81.65Zm-80.4.08c-.5,1.09-1,2.16-1.59,3.2a45.06,45.06,0,0,0-2.39,5.17,13.55,13.55,0,0,0-.7,2.75,1.87,1.87,0,0,0,0,.72h.11a4.52,4.52,0,0,0,1.2-.37l.42-.2c.06-.2.11-.4.18-.59a47.06,47.06,0,0,1,2.4-5.18c.53-1,1.08-2.11,1.58-3.19,1.31-2.87,2.9-5.67,4.44-8.38.75-1.32,1.51-2.64,2.23-4l.14-.24c1.06-2,2.17-4,3.18-6.05.76-1.55,1.44-3.29.69-4.45a1.81,1.81,0,0,0-.89-.72,9.12,9.12,0,0,1-1,2.87c-1,2-2.11,4.08-3.18,6l-.13.25c-.73,1.33-1.48,2.65-2.23,4C87.59,76.06,86,78.86,84.69,81.73ZM207,56.73a2.37,2.37,0,0,0-.84-.95c.19,1.83-.52,4.5-2.68,7.41a42.2,42.2,0,0,1-8.12,8c-4.73,3.78-8.77,6.06-12,6.77a9.32,9.32,0,0,1-1.4.21,5,5,0,0,1-4-1.22c-.17-.17-.32-.36-.47-.54a6.64,6.64,0,0,0,1.67,2.84,5,5,0,0,0,4,1.22,9.64,9.64,0,0,0,1.41-.21c3.24-.71,7.29-3,12-6.77a42.2,42.2,0,0,0,8.12-8C207.4,61.75,207.79,58.39,207,56.73ZM16.8,117.46a9.22,9.22,0,0,1-.17-1,29.9,29.9,0,0,1,.57-8c.49-2.86,1.1-5.7,1.81-8.43A125.2,125.2,0,0,1,24.69,82.4,88.06,88.06,0,0,1,33.83,66c4.87-6.88,10-12,15.68-15.68a36.07,36.07,0,0,1,12.48-5,38.32,38.32,0,0,1,4.57-.66c3.83-.27,6.48.44,8.11,2.13a4.85,4.85,0,0,0-1.06-2.17c-1.62-1.8-4.32-2.53-8.24-2.26A37.76,37.76,0,0,0,60.8,43a36,36,0,0,0-12.48,5c-5.68,3.67-10.81,8.8-15.68,15.68A88.68,88.68,0,0,0,23.49,80.1a127,127,0,0,0-5.68,17.56c-.71,2.73-1.31,5.57-1.81,8.43a29.93,29.93,0,0,0-.56,8C15.62,115.85,16.08,117,16.8,117.46ZM29.34,83.85c.19,2.51,2.86,3.3,4,3.65a28.11,28.11,0,0,0,2.75.63c.2-.67.41-1.34.6-2a34.28,34.28,0,0,1-4.55-.93A7.71,7.71,0,0,1,29.34,83.85Z"/><path class="cls-2" d="M79.9,51.73C84.24,45,88.49,33.81,81.08,28c-2.92-2.28-7-3-10.65-3a46.16,46.16,0,0,0-13.3,2.18C48.05,30,39.82,35.45,32.74,41.81a102.39,102.39,0,0,0-18.47,22.4,97.81,97.81,0,0,0-11.61,27A84.33,84.33,0,0,0,.2,105.39c-.34,4.46-.43,9.38,1.29,13.5a8,8,0,0,0,9,5.17c4.58-.65,8.89-3.08,12.57-5.87,7.67-5.8,13.67-14.22,17.63-22.88A119,119,0,0,0,45.05,83c.33-1,.66-2,1-3.06.19-.59.38-1.17.58-1.76s.33-1.58.77-1.91A7.29,7.29,0,0,1,49,75.66L50.71,75c1.11-.48,2.22-1,3.31-1.51A68,68,0,0,0,75.92,57,48.63,48.63,0,0,0,79.9,51.73ZM65.59,57a46.24,46.24,0,0,1-15.08,9c1-2.37,1.94-4.59,3.1-6.87,1.51-3,3.21-5.93,4.57-9,.43-1,.79-2.31-.14-3.06-1.29-1-3.75-.19-5.15.35-3.45,1.33-6.22,4.16-8.32,7.14A44.72,44.72,0,0,0,39.35,65c-.28.77-.54,1.53-.78,2.31a7.56,7.56,0,0,1-.66,2.18c-.31.38-1.72,0-2.22,0A22.36,22.36,0,0,1,33.13,69a8,8,0,0,0-2.61-.67,3.25,3.25,0,0,0-2.25,1.61,11.91,11.91,0,0,0-1.8,5.88c0,1.83,1.89,2.54,3.37,3a37.62,37.62,0,0,0,5.5,1.06C34,84.27,32.66,88.72,31,93.07c-2.16,5.62-4.73,11.49-8.83,16-1.76,2-4,3.91-6.71,4.22s-3.47-2.3-3.7-4.48a30.69,30.69,0,0,1,.57-8.32Q13,96.24,14.14,92A126.08,126.08,0,0,1,19.87,74.3a89.88,89.88,0,0,1,9.26-16.62,59.77,59.77,0,0,1,16-16A37.06,37.06,0,0,1,58,36.58c4.33-.87,10.54-1.65,13.72,1.88,1.84,2,1.72,5.14,1,7.73a21,21,0,0,1-4.12,7.64A31.39,31.39,0,0,1,65.59,57Zm121.81,2.8a4.4,4.4,0,0,1-2.79,1c-2.38-.39,1.58-8.4,2.16-9.59,2-4.13,4.08-8.22,6-12.4a25.88,25.88,0,0,0,2.14-6c.13-.7.22-1.7-.46-2.12s-1.82,0-2.54.16a21.14,21.14,0,0,1-2.8.68,2.75,2.75,0,0,1-1.31-.06c-.53-.22-.68-.8-1-1.24-1.14-1.6-3.73-.29-5.21.31a43.47,43.47,0,0,0-11.78,7.7,81.24,81.24,0,0,0-17.19,21.33,41,41,0,0,0-3.12,6.89c-.61-.07-2.5.27-4,3.14a7.27,7.27,0,0,1-2.79,2.68,26,26,0,0,1-5.47,2.35c-4.84,1.43-6.14-.33-6.5-.25a21,21,0,0,1,3.59-4.31c1.93-2.09,3.86-4.18,5.76-6.29,4-4.46,8-8.92,11.9-13.44.85-1,1.69-2,2.49-3s2.14-1.24,3.08-1.89a5.15,5.15,0,0,0,2.11-2.65c.46-1.17,1.07-2.74.72-4-.29-1.05-1.4-1.05-2.31-.73-1.1.38-2.16.85-3.29,1.18-1.28.37-2.58.69-3.87,1a9.25,9.25,0,0,1-4.06.45c-1.62-.33-3.14-1.32-4.83-1.28a11.53,11.53,0,0,0-4.49,1.43,21.48,21.48,0,0,0-7.42,6.41c0-.89-.21-1.71-1.19-1.8a6.72,6.72,0,0,0-2.69.79,58.36,58.36,0,0,1-6.5,1.78,7.34,7.34,0,0,1-3.57.17c-1.27-.31-2.45-.95-3.76-1.15-2.19-.34-4.93,1.07-6.76,2.23-4.83,3.07-8.14,8.21-10.36,13.26-.17.38-.31.77-.46,1.16-.23.65-.76,2-.22,2.5,1.1,1,3.82-2.37,4.44-3.06,1.77-2,3.31-4.34,5.87-5.28a17.32,17.32,0,0,1,3.72-1c1.25-.16,2.42.45,3.61.69-5.63,6.05-11.23,12.13-17,18.09a83.88,83.88,0,0,1-6.91,6.42,75.91,75.91,0,0,1-7.12,5.38A14.6,14.6,0,0,1,79,88.67c-.68.28-1.89.78-2.44.16a2,2,0,0,1-.2-1.51,15.24,15.24,0,0,1,.76-3c1.07-2.93,2.71-5.62,4-8.45,2-4.29,4.46-8.28,6.7-12.42,1.13-2.07,2.26-4.15,3.3-6.26.67-1.36,1.93-4.13-.62-3.89a16.85,16.85,0,0,0-6.95,2.82,12.68,12.68,0,0,0-4.28,4.63c-2,3.64-4.09,7.21-6.09,10.83-1.22,2.2-2.54,4.36-3.63,6.62a123.31,123.31,0,0,0-5.32,12.14c-.7,2-1.56,4.42-1.13,6.53s2.52,2.63,4.47,2.45c4.8-.46,9.34-3.27,13.49-5.63,1.85-1.06,3.69-2.15,5.52-3.24.53-.32,1.06-.64,1.59-.94a5.28,5.28,0,0,0,4.15,3.09c5.65.67,11.47-1.77,16.39-3.91A72.42,72.42,0,0,0,120.13,82c.24,0,.57,4.28,10.36,2.65s16.79-8.08,19-9.6c2.65,4.26,8.87,2.15,12.52.24a49.11,49.11,0,0,0,12.13-9A7.45,7.45,0,0,0,176,70.7c1.2,1.14,2.92,1.12,4.49.78,3.93-.85,8.44-4,11.56-6.56a40.5,40.5,0,0,0,7.92-7.76c4.37-5.89,2.41-10.75-1.1-7.38A100.66,100.66,0,0,1,187.4,59.82ZM123.89,71c-.71-.36-2.59-.54-4.43,1.7A20.89,20.89,0,0,1,114.51,78c-3.85,2.54-7.54,4.19-9.25,4.52s-4.75.59-4.91-.59a19.41,19.41,0,0,1,3.31-4c1.81-2,3.62-3.91,5.4-5.88q5.75-6.37,11.38-12.83c1-1.09,1.92-2.19,2.85-3.31a14.53,14.53,0,0,1,1-1.24,10.83,10.83,0,0,1,2-1.1c-.34.72-2.71,5.43-.73,5.16A5.14,5.14,0,0,0,128,57c.76-.75,1.47-1.54,2.16-2.35,1.7-1.94,3.16-3.82,5.71-4.59a15,15,0,0,1,3.35-.8,13.38,13.38,0,0,1,3.34.72l-16.4,18.45ZM175.4,53.07a39.88,39.88,0,0,1-6.21,10.24,14.42,14.42,0,0,1-4.43,4c-1.43.69-3.23.89-3.54-1a10.58,10.58,0,0,1,1-5.25,37.45,37.45,0,0,1,2.17-4.46A66.29,66.29,0,0,1,172,46c3-3.33,6.73-7.1,11.16-8.2l-6.75,13.37C176.05,51.8,175.73,52.44,175.4,53.07Z"/><path class="cls-2" d="M107.5,29.9a65.89,65.89,0,0,1,3.62-8.1l-5.62,1.13L99.94,34.06l-8,1.6L104.85,9.89l8-1.61L107.08,19.8l5.62-1.13,5.68-11.5,8-1.62q-1.44,2.9-3.13,6.15L120,18.08a87.29,87.29,0,0,0-4.76,10.55,3.48,3.48,0,0,0-.23,1.9,11.81,11.81,0,0,1-4.54,2.11c-1.48.3-2.42.16-2.83-.41A2.56,2.56,0,0,1,107.5,29.9Z"/><path class="cls-2" d="M127.33,29.25q-8.35,1.68-5.84-6.1a23.88,23.88,0,0,1,6-9.71,19.92,19.92,0,0,1,10.16-5.59q4.11-.82,5.59.63t.21,5.4A23.78,23.78,0,0,1,137.12,24,19.66,19.66,0,0,1,127.33,29.25Zm6.28-16.54a23.33,23.33,0,0,0-1.63,2.7c-.58,1.06-1.27,2.42-2.09,4.09a39.07,39.07,0,0,0-2.2,5.46,3.2,3.2,0,0,0-.2,1.55c.08.38.41.52,1,.4a3.81,3.81,0,0,0,1.56-.7,6.94,6.94,0,0,0,1.42-1.59,40.91,40.91,0,0,0,3-5.21,51.19,51.19,0,0,0,2.15-4.74c.34-.93.62-1.74.85-2.43a4.09,4.09,0,0,0,.25-1.65c-.06-.41-.38-.56-1-.44a3.36,3.36,0,0,0-1.59.81A9.89,9.89,0,0,0,133.61,12.71Z"/><path class="cls-2" d="M143.58,21.76a30.1,30.1,0,0,1,1.69-3.67l5.3-10.55L148.32,8l.52-1.16A54.5,54.5,0,0,0,159.32.37L161.15,0l-2.24,4.28,3-.6L161,5.44,158.06,6l-5.23,10.53a28.33,28.33,0,0,0-1.5,3.22c-.39,1.2-.09,1.82.89,1.86a7.27,7.27,0,0,1-2.4,2.38,10.45,10.45,0,0,1-3.56,1.41c-1.29.26-2.17.07-2.65-.59S143.13,23.16,143.58,21.76Z"/><path class="cls-2" d="M51.61,122.85l4.06-.78a4.85,4.85,0,0,1,1.85,0,2.24,2.24,0,0,1,1.32.7,2.56,2.56,0,0,1,.58,1.49,5.77,5.77,0,0,1-.39,2.35,8.86,8.86,0,0,1-1.34,2.55,10.93,10.93,0,0,1-1.87,2,9.77,9.77,0,0,1-2.09,1.35,8.2,8.2,0,0,1-2,.7l-3.84.74Zm.07,8.62a8,8,0,0,0,1.68-.52,7.08,7.08,0,0,0,1.55-.91,6.74,6.74,0,0,0,1.29-1.32,6.55,6.55,0,0,0,.91-1.79,4.47,4.47,0,0,0,.29-1.65,1.49,1.49,0,0,0-.41-1,1.79,1.79,0,0,0-1-.41,4.85,4.85,0,0,0-1.48.09l-1.67.32-2.53,7.47Z"/><path class="cls-2" d="M47.44,134.25l3.94-11.66,4.23-.81a5.23,5.23,0,0,1,2,0,2.55,2.55,0,0,1,1.49.79,2.78,2.78,0,0,1,.65,1.67,6,6,0,0,1-.4,2.47,9.55,9.55,0,0,1-1.38,2.63,11.87,11.87,0,0,1-1.92,2,11.55,11.55,0,0,1-2.15,1.39,8.67,8.67,0,0,1-2.09.72Zm4.39-11.14-3.51,10.37,3.34-.65a8,8,0,0,0,1.94-.67,10.06,10.06,0,0,0,2-1.32,11,11,0,0,0,1.82-1.9,8.57,8.57,0,0,0,1.3-2.47,5.55,5.55,0,0,0,.37-2.23,2.29,2.29,0,0,0-.5-1.33,2,2,0,0,0-1.16-.6,4.7,4.7,0,0,0-1.74,0Zm-2,9L52.61,124l1.85-.35a5.07,5.07,0,0,1,1.56-.1,2.06,2.06,0,0,1,1.17.5,1.73,1.73,0,0,1,.5,1.2,4.51,4.51,0,0,1-.3,1.77,6.93,6.93,0,0,1-1,1.86,6.8,6.8,0,0,1-1.35,1.38,7,7,0,0,1-1.61.95,8,8,0,0,1-1.75.54Zm3.19-7.59-2.31,6.82.87-.17a7.47,7.47,0,0,0,1.63-.5,6.85,6.85,0,0,0,1.48-.87A6.45,6.45,0,0,0,56,128.54a6.19,6.19,0,0,0,.87-1.7,4.34,4.34,0,0,0,.28-1.54,1.21,1.21,0,0,0-.33-.81,1.41,1.41,0,0,0-.83-.34,4.24,4.24,0,0,0-1.38.09Z"/><path class="cls-2" d="M69.92,119.32,76.74,118l-.6,1.77-5,1-.91,2.7,4.72-.91-.6,1.77-4.73.92-1,3,5.25-1-.6,1.77-7.08,1.37Z"/><path class="cls-2" d="M65.74,130.72l4-11.66,7.49-1.44L76.36,120l-5,1-.69,2.07,4.72-.92-.82,2.42-4.72.91-.8,2.35,5.25-1-.82,2.41Zm4.4-11.15L66.63,130,73,128.71l.39-1.13-5.25,1L69.41,125l4.73-.91.38-1.13-4.72.91,1.12-3.35,5-1,.39-1.13Z"/><path class="cls-2" d="M86.07,116.2l1.84-.35-3.13,9.24,4.37-.85-.6,1.78-6.21,1.19Z"/><path class="cls-2" d="M81.9,127.6l3.95-11.66,2.5-.48-3.13,9.24,4.38-.84-.82,2.41Zm4.4-11.14-3.52,10.37,5.55-1.07.38-1.13-4.38.84,3.13-9.24Z"/><path class="cls-2" d="M100.85,113.35l1.83-.35L99,124l-1.83.35Z"/><path class="cls-2" d="M96.68,124.75l3.94-11.66,2.5-.48-4,11.66Zm4.39-11.14L97.56,124l1.17-.23,3.51-10.37Z"/><path class="cls-2" d="M111,111.39l2.11-.41v7.78l5.71-8.88,2-.38-7.89,11.82-1.58.3Z"/><path class="cls-2" d="M111,122l-.33-10.83,2.71-.53,0,7.14,5.24-8.14,2.8-.54-8.35,12.5Zm.28-10.35.29,9.64,1.12-.22,7.43-11.13-1.16.23-6.19,9.62,0-8.43Z"/><path class="cls-2" d="M129.18,107.88l6.82-1.31-.6,1.77-5,1L129.5,112l4.72-.91-.6,1.77-4.73.92-1,3,5.25-1-.6,1.77-7.08,1.37Z"/><path class="cls-2" d="M125,119.29,129,107.63l7.49-1.45-.82,2.42-5,1-.69,2.07,4.73-.92-.83,2.42-4.72.91-.8,2.35,5.25-1-.82,2.42Zm4.4-11.15-3.51,10.37,6.41-1.23.39-1.13-5.25,1,1.23-3.63,4.73-.91.38-1.14-4.72.92,1.12-3.35,5-1,.39-1.13Z"/><path class="cls-2" d="M145.34,104.77l3.58-.69a6.31,6.31,0,0,1,1.39-.13,2,2,0,0,1,1.06.26,1.21,1.21,0,0,1,.53.8,3.06,3.06,0,0,1-.21,1.48,5.37,5.37,0,0,1-.53,1.14,5.71,5.71,0,0,1-.77,1,5.53,5.53,0,0,1-1,.78,5,5,0,0,1-1.14.54l1.1,4.34-2.21.43-.81-4.21-1.33.26-1.58,4.67-1.84.35Zm1.67,4c.26,0,.53-.12.8-.19a3.8,3.8,0,0,0,.78-.33,2.74,2.74,0,0,0,.68-.55,2.46,2.46,0,0,0,.5-.89,1.18,1.18,0,0,0,.07-.74.55.55,0,0,0-.35-.35,1.41,1.41,0,0,0-.6-.06,4.31,4.31,0,0,0-.71.09l-1.58.3-1,3Z"/><path class="cls-2" d="M141.17,116.17l4-11.66,3.75-.72a6.74,6.74,0,0,1,1.44-.14,2.43,2.43,0,0,1,1.21.31,1.5,1.5,0,0,1,.67,1,3.33,3.33,0,0,1-.22,1.64,6.14,6.14,0,0,1-.56,1.19,5.88,5.88,0,0,1-.81,1,5.8,5.8,0,0,1-1,.82,5.46,5.46,0,0,1-.93.48l1.1,4.38-2.81.54-.8-4.2-.88.17-1.58,4.66Zm4.4-11.15-3.52,10.38,1.17-.23,1.58-4.67,1.8-.34.8,4.2,1.62-.31-1.09-4.3.26-.09a4.56,4.56,0,0,0,1.07-.51,4.28,4.28,0,0,0,.91-.74,4.74,4.74,0,0,0,.73-.94,5,5,0,0,0,.51-1.07,2.73,2.73,0,0,0,.2-1.33.89.89,0,0,0-.4-.61,1.82,1.82,0,0,0-.91-.22,7.09,7.09,0,0,0-1.32.13Zm-.43,4.45,1.23-3.63,1.76-.34a6,6,0,0,1,.74-.1,1.79,1.79,0,0,1,.72.08.85.85,0,0,1,.53.53,1.48,1.48,0,0,1-.07.93,2.7,2.7,0,0,1-.56,1,2.92,2.92,0,0,1-.75.62,3.71,3.71,0,0,1-.85.35c-.28.08-.55.14-.83.2Zm1.68-3.12L146,108.7l.93-.18a7.85,7.85,0,0,0,.77-.19,3.23,3.23,0,0,0,.72-.3,2.53,2.53,0,0,0,.61-.49,2.36,2.36,0,0,0,.43-.79.91.91,0,0,0,.07-.54.25.25,0,0,0-.16-.17,1.23,1.23,0,0,0-.49-.05c-.23,0-.45.05-.67.09Z"/><path class="cls-2" d="M161.61,107.52,159.88,102l2.29-.44,1,3.9,4-4.88,2.18-.42-6,7-1.59,4.72-1.84.35Z"/><path class="cls-2" d="M159.57,112.62l1.73-5.11-1.8-5.77,2.89-.56,1,3.61,3.75-4.52,3.12-.6-6.52,7.64-1.63,4.82Zm.69-10.43,1.66,5.33-1.46,4.33,1.16-.23,1.59-4.65,5.46-6.4-1.25.24-4.35,5.24L162,101.86Z"/></g></g></svg>